<?xml version="1.0" standalone="no"?>
<!DOCTYPE svg PUBLIC "-//W3C//DTD SVG 20010904//EN"
 "http://www.w3.org/TR/2001/REC-SVG-20010904/DTD/svg10.dtd">
<svg version="1.0" xmlns="http://www.w3.org/2000/svg"
 width="860.000000pt" height="654.000000pt" viewBox="0 0 860.000000 654.000000"
 preserveAspectRatio="xMidYMid meet">
<metadata>
Created by potrace 1.14, written by Peter Selinger 2001-2017
</metadata>
<g transform="translate(0.000000,654.000000) scale(0.100000,-0.100000)"
fill="#000000" stroke="none">
<path d="M1993 6136 c-243 -47 -376 -135 -582 -387 -271 -330 -526 -803 -615
-1139 -106 -400 -100 -872 19 -1356 172 -698 580 -1376 1049 -1743 173 -134
294 -209 511 -316 211 -104 378 -170 568 -225 723 -207 1432 -164 1842 113 33
23 115 94 182 159 67 64 137 125 155 135 56 29 155 22 283 -20 246 -81 483
-108 782 -89 422 26 779 123 1058 287 130 75 276 218 323 315 79 162 81 310 7
506 -93 247 -398 640 -738 951 -407 373 -692 570 -1261 872 -445 237 -710 416
-915 619 -163 163 -226 271 -201 347 58 176 523 395 1070 505 203 40 347 54
513 48 161 -6 227 -25 297 -83 68 -57 143 -58 205 -4 72 63 85 182 29 261
-125 177 -607 202 -1159 61 -251 -64 -484 -152 -739 -280 -453 -227 -499 -284
-500 -623 -1 -145 -1 -145 33 -214 92 -190 500 -499 1114 -846 542 -306 660
-381 933 -587 277 -211 529 -439 766 -697 207 -225 252 -312 250 -486 -2 -204
-82 -339 -263 -444 -111 -64 -353 -124 -614 -151 -207 -22 -638 -31 -746 -15
-275 40 -299 159 -95 473 130 198 196 373 204 532 4 91 2 102 -18 127 -15 19
-31 28 -50 28 -56 0 -151 -148 -342 -530 -181 -363 -328 -599 -461 -737 -259
-269 -696 -401 -1229 -372 -473 25 -988 194 -1388 454 -528 343 -1000 1023
-1129 1625 -70 332 -89 828 -46 1232 46 440 195 734 554 1101 133 136 226 206
315 237 81 29 225 43 366 36 227 -10 313 -50 473 -216 137 -142 221 -263 316
-455 196 -394 275 -722 311 -1292 19 -305 58 -384 191 -385 106 0 138 58 138
259 1 143 -12 267 -60 552 -119 721 -383 1270 -764 1590 -163 136 -308 210
-494 252 -114 26 -350 34 -448 15z"/>
</g>
</svg>
